:FULLY-SPECIFIED
:FORCE-ALL-JOINTS-BE-3DOF
:DEGREES
102
root -1.78108 16.4079 -36.0666 21.7866 22.8752 17.7929
lfemur -14.3942 -1.88654 -10.6752
ltibia 41.2491 0 0
lfoot -20.5439 12.4071 0
ltoes -21.0901 0 0
rfemur -28.6153 -1.47479 13.7975
rtibia 45.2825 0 0
rfoot -16.7984 0.603776 0
rtoes -18.1155 0 0
lowerback 10.1276 1.77135 -4.35291
upperback -2.41141 1.72949 1.44149
thorax -8.23666 1.13263 3.87829
lowerneck -4.71552 -3.49153 -5.90914
upperneck 5.01379 -4.55224 5.09645
head 2.76972 -2.2307 2.54868
lclavicle -1.7442e-16 -6.71879e-15 0
lhumerus -17.2942 -17.2055 89.0829
lradius 33.0276 0 0
lwrist -26.6931 0 0
lhand -27.9477 33.0957 0
lfingers 7.12502 0 0
lthumb -1.3354 63.0667 0
rclavicle -1.7442e-16 -6.71879e-15 0
rhumerus -22.7051 11.0925 -77.508
rradius 56.7303 0 0
rwrist -9.1267 0 0
rhand 6.7117 -20.779 0
rfingers 7.12502 0 0
rthumb 18.6412 -70.9285 0
103
root -1.76579 16.4024 -36.0639 22.0201 23.1785 18.06
lfemur -14.3448 -1.86087 -10.7182
ltibia 41.2962 0 0
lfoot -20.5795 12.4804 0
ltoes -21.024 0 0
rfemur -28.7387 -1.49606 13.7855
rtibia 45.347 0 0
rfoot -16.7158 0.648906 0
rtoes -18.0777 0 0
lowerback 10.1681 1.76111 -4.38394
upperback -2.40187 1.7088 1.44368
thorax -8.24711 1.1245 3.90281
lowerneck -4.71596 -3.48433 -5.89698
upperneck 5.01784 -4.54236 5.0785
head 2.76971 -2.22606 2.54088
lclavicle -2.00796e-16 -6.68644e-15 0
lhumerus -17.1663 -17.3601 89.0751
lradius 33.1222 0 0
lwrist -26.642 0 0
lhand -27.9361 33.136 0
lfingers 7.12502 0 0
lthumb -1.3242 63.1071 0
rclavicle -2.00796e-16 -6.68644e-15 0
rhumerus -22.5735 11.1758 -77.4531
rradius 57.04 0 0
rwrist -9.29527 0 0
rhand 7.11302 -20.7216 0
rfingers 7.12502 0 0
rthumb 18.8543 -71.1484 0
104
root -1.75044 16.3969 -36.0611 22.2544 23.4827 18.3278
lfemur -14.2953 -1.83513 -10.7615
ltibia 41.3435 0 0
lfoot -20.6153 12.5538 0
ltoes -20.9578 0 0
rfemur -28.8624 -1.5174 13.7734
rtibia 45.4117 0 0
rfoot -16.633 0.694169 0
rtoes -18.0399 0 0
lowerback 10.2087 1.75084 -4.41507
upperback -2.3923 1.68806 1.44587
thorax -8.2576 1.11634 3.92741
lowerneck -4.7164 -3.47712 -5.88478
upperneck 5.02191 -4.53244 5.0605
head 2.7697 -2.22142 2.53306
lclavicle -2.27262e-16 -6.65399e-15 0
lhumerus -17.0381 -17.5153 89.0673
lradius 33.217 0 0
lwrist -26.5907 0 0
lhand -27.9245 33.1765 0
lfingers 7.12502 0 0
lthumb -1.31297 63.1476 0
rclavicle -2.27262e-16 -6.65399e-15 0
rhumerus -22.4416 11.2594 -77.398
rradius 57.3507 0 0
rwrist -9.46435 0 0
rhand 7.51553 -20.664 0
rfingers 7.12502 0 0
rthumb 19.0681 -71.3687 0
105
root -1.73506 16.3914 -36.0584 22.4893 23.7877 18.5965
lfemur -14.2457 -1.80931 -10.8048
ltibia 41.3909 0 0
lfoot -20.6511 12.6275 0
ltoes -20.8913 0 0
rfemur -28.9864 -1.5388 13.7613
rtibia 45.4765 0 0
rfoot -16.5499 0.739564 0
rtoes -18.0019 0 0
lowerback 10.2495 1.74054 -4.44629
upperback -2.38271 1.66725 1.44808
thorax -8.26811 1.10816 3.95207
lowerneck -4.71684 -3.46988 -5.87254
upperneck 5.02599 -4.5225 5.04244
head 2.76968 -2.21676 2.52521
lclavicle -2.53818e-16 -6.62143e-15 0
lhumerus -16.9095 -17.6709 89.0595
lradius 33.3122 0 0
lwrist -26.5393 0 0
lhand -27.9128 33.217 0
lfingers 7.12502 0 0
lthumb -1.3017 63.1882 0
rclavicle -2.53818e-16 -6.62143e-15 0
rhumerus -22.3093 11.3432 -77.3428
rradius 57.6623 0 0
rwrist -9.63392 0 0
rhand 7.91922 -20.6062 0
rfingers 7.12502 0 0
rthumb 19.2824 -71.5894 0
106
root -1.71963 16.3859 -36.0556 22.7249 24.0937 18.8659
lfemur -14.1959 -1.78342 -10.8483
ltibia 41.4384 0 0
lfoot -20.6871 12.7014 0
ltoes -20.8247 0 0
rfemur -29.1109 -1.56025 13.7491
rtibia 45.5415 0 0
rfoot -16.4666 0.785089 0
rtoes -17.9638 0 0
lowerback 10.2903 1.73021 -4.4776
upperback -2.37308 1.64639 1.45028
thorax -8.27865 1.09995 3.9768
lowerneck -4.71729 -3.46262 -5.86027
upperneck 5.03008 -4.51253 5.02433
head 2.76967 -2.21208 2.51735
lclavicle -2.80464e-16 -6.58878e-15 0
lhumerus -16.7806 -17.8269 89.0517
lradius 33.4076 0 0
lwrist -26.4878 0 0
lhand -27.9011 33.2577 0
lfingers 7.12502 0 0
lthumb -1.2904 63.2289 0
rclavicle -2.80464e-16 -6.58878e-15 0
rhumerus -22.1767 11.4273 -77.2875
rradius 57.9748 0 0
rwrist -9.80397 0 0
rhand 8.32407 -20.5483 0
rfingers 7.12502 0 0
rthumb 19.4974 -71.8106 0
107
root -1.70416 16.3803 -36.0529 22.9612 24.4005 19.1361
lfemur -14.1459 -1.75746 -10.8919
ltibia 41.4861 0 0
lfoot -20.7231 12.7755 0
ltoes -20.7579 0 0
rfemur -29.2356 -1.58177 13.7369
rtibia 45.6067 0 0
rfoot -16.383 0.83074 0
rtoes -17.9256 0 0
lowerback 10.3312 1.71985 -4.509
upperback -2.36344 1.62546 1.4525
thorax -8.28923 1.09172 4.00161
lowerneck -4.71773 -3.45535 -5.84797
upperneck 5.03419 -4.50253 5.00617
head 2.76966 -2.2074 2.50946
lclavicle -3.07198e-16 -6.55602e-15 0
lhumerus -16.6513 -17.9834 89.0439
lradius 33.5033 0 0
lwrist -26.4361 0 0
lhand -27.8894 33.2985 0
lfingers 7.12502 0 0
lthumb -1.27907 63.2698 0
rclavicle -3.07198e-16 -6.55602e-15 0
rhumerus -22.0436 11.5116 -77.2319
rradius 58.2881 0 0
rwrist -9.97451 0 0
rhand 8.73006 -20.4903 0
rfingers 7.12502 0 0
rthumb 19.7129 -72.0321 0
108
root -1.68864 16.3747 -36.0501 23.1982 24.7081 19.4071
lfemur -14.0959 -1.73142 -10.9356
ltibia 41.5339 0 0
lfoot -20.7593 12.8498 0
ltoes -20.6909 0 0
rfemur -29.3607 -1.60334 13.7247
rtibia 45.6721 0 0
rfoot -16.2993 0.876516 0
rtoes -17.8873 0 0
lowerback 10.3723 1.70946 -4.54048
upperback -2.35376 1.60448 1.45472
thorax -8.29983 1.08347 4.02648
lowerneck -4.71818 -3.44805 -5.83563
upperneck 5.0383 -4.49251 4.98797
head 2.76964 -2.2027 2.50155
lclavicle -3.3402e-16 -6.52316e-15 0
lhumerus -16.5216 -18.1403 89.036
lradius 33.5993 0 0
lwrist -26.3843 0 0
lhand -27.8776 33.3395 0
lfingers 7.12502 0 0
lthumb -1.26771 63.3107 0
rclavicle -3.3402e-16 -6.52316e-15 0
rhumerus -21.9102 11.5961 -77.1763
rradius 58.6023 0 0
rwrist -10.1455 0 0
rhand 9.13716 -20.4321 0
rfingers 7.12502 0 0
rthumb 19.929 -72.254 0
